<svg width="32" height="32" viewBox="0 0 32 32" fill="none" xmlns="http://www.w3.org/2000/svg">
  <!-- Background circle with gradient -->
  <defs>
    <linearGradient id="bgGradient" x1="0%" y1="0%" x2="100%" y2="100%">
      <stop offset="0%" style="stop-color:#00d4ff;stop-opacity:1" />
      <stop offset="100%" style="stop-color:#9d4edd;stop-opacity:1" />
    </linearGradient>
    <linearGradient id="textGradient" x1="0%" y1="0%" x2="100%" y2="100%">
      <stop offset="0%" style="stop-color:#ffffff;stop-opacity:1" />
      <stop offset="100%" style="stop-color:#00d4ff;stop-opacity:0.9" />
    </linearGradient>
  </defs>
  
  <!-- Background -->
  <circle cx="16" cy="16" r="15" fill="url(#bgGradient)" stroke="#00d4ff" stroke-width="1"/>
  
  <!-- Letter B stylized -->
  <path d="M10 8 L10 24 L18 24 Q22 24 22 20 Q22 18 20 17 Q22 16 22 12 Q22 8 18 8 Z M13 11 L17 11 Q19 11 19 13 Q19 15 17 15 L13 15 Z M13 18 L18 18 Q20 18 20 20 Q20 22 18 22 L13 22 Z" 
        fill="url(#textGradient)" 
        stroke="#ffffff" 
        stroke-width="0.5"/>
  
  <!-- Tech dots effect -->
  <circle cx="8" cy="8" r="1" fill="#00d4ff" opacity="0.7"/>
  <circle cx="24" cy="8" r="1" fill="#ff006b" opacity="0.7"/>
  <circle cx="8" cy="24" r="1" fill="#9d4edd" opacity="0.7"/>
  <circle cx="24" cy="24" r="1" fill="#00d4ff" opacity="0.7"/>
</svg>
